<svg xmlns="http://www.w3.org/2000/svg" viewBox="0 0 829 839">
<defs>
<style>
.a{fill:none;stroke:#fff;stroke-linecap:round;stroke-linejoin:round;stroke-width:26px;}
</style>
</defs>

<path class="a" d="M867,647s-10,101,10,114,54,14,59-17,3-47,3-47" transform="translate(-550 -125)"/>
<path class="a" d="M936,744s-6,69,33,67,37-22,39-95" transform="translate(-550 -125)"/>
<path class="a" d="M1008,770s0,68,36,62,36-19,36-87" transform="translate(-550 -125)"/>
<path class="a" d="M1080,800s-5,56,46,53c0,0,25,8,29-53s0-190,0-190,66,80,98,73,42-47,11-81-64-81-102-93-173-62-173-62L699,138" transform="translate(-550 -125)"/>
<path class="a" d="M874,324s-22-34,15-60,113,82,122,97,42.94,109.84,42.94,109.84" transform="translate(-550 -125)"/>

<line class="a" x1="584.19" y1="727.29" x2="685" y2="826"/>
<line class="a" x1="680.49" y1="553.08" x2="816" y2="695"/>

<rect class="a" x="235" y="447" width="107" height="60" rx="30"/>
<rect class="a" x="189" y="386" width="137" height="59" rx="29.5"/>
<rect class="a" x="149" y="315" width="155" height="71" rx="35.5"/>
<rect class="a" x="114" y="247" width="121" height="68" rx="34"/>

<line class="a" x1="131" y1="252" x2="13" y2="135"/>

</svg>